<?xml version="1.0" standalone="no"?>
<!DOCTYPE svg PUBLIC "-//W3C//DTD SVG 20010904//EN"
 "http://www.w3.org/TR/2001/REC-SVG-20010904/DTD/svg10.dtd">
<svg version="1.0" xmlns="http://www.w3.org/2000/svg"
 width="500.000000pt" height="500.000000pt" viewBox="0 0 500.000000 500.000000"
 preserveAspectRatio="xMidYMid meet">

<g transform="translate(0.000000,500.000000) scale(0.100000,-0.100000)"
fill="#000000" stroke="none">
<path d="M2088 3658 c32 -7 45 -16 53 -34 5 -14 9 -144 9 -289 0 -145 -4 -275
-9 -289 -8 -18 -21 -27 -53 -34 -37 -8 -26 -10 72 -11 l115 -1 -35 18 -35 17
-3 144 c-2 123 0 146 14 162 10 11 20 19 24 19 4 0 34 -34 66 -75 47 -60 61
-72 69 -61 8 10 16 11 28 5 9 -6 17 -8 17 -6 0 3 -32 44 -70 93 l-71 88 88 89
c108 109 154 142 224 160 l54 14 -120 0 c-87 0 -111 -2 -87 -9 17 -5 32 -14
32 -21 0 -7 -61 -73 -135 -147 l-135 -135 0 131 c0 147 4 159 65 172 30 7 7 9
-90 9 -103 0 -121 -2 -87 -9z"/>
<path d="M2501 3034 c-183 -261 -330 -478 -327 -481 3 -4 8 -4 10 -2 15 18
666 950 666 954 0 22 -55 -52 -349 -471z"/>
<path d="M3023 3142 c-7 -4 -66 -131 -132 -281 -65 -149 -122 -273 -126 -274
-5 -1 -45 78 -90 176 -45 98 -85 180 -87 183 -3 2 -13 -7 -22 -22 -17 -25 -17
-28 75 -230 51 -112 98 -203 103 -201 6 2 65 128 131 280 65 152 123 273 126
269 4 -4 9 -126 11 -272 l3 -264 -40 -12 c-36 -11 -28 -12 85 -12 83 0 112 3
87 8 -70 13 -68 8 -80 320 -8 195 -8 287 -1 298 6 9 31 22 55 28 l44 12 -65 1
c-36 0 -71 -3 -77 -7z"/>
<path d="M2448 2727 c-5 -10 -8 -53 -8 -95 0 -92 -14 -123 -60 -139 -31 -11
-24 -12 70 -12 92 0 101 2 73 12 -53 20 -58 30 -63 145 -3 62 -8 99 -12 89z"/>
<path d="M1116 1973 c-3 -3 -6 -39 -6 -80 0 -58 3 -73 15 -73 9 0 15 9 15 24
0 13 6 29 14 35 10 9 18 4 37 -24 13 -19 30 -35 37 -35 15 0 11 9 -24 57 l-24
32 26 31 c41 48 19 49 -26 0 l-40 -43 0 36 c0 35 -11 53 -24 40z"/>
<path d="M1360 1916 c0 -56 3 -67 22 -80 12 -9 32 -16 43 -16 11 0 31 7 43 16
19 13 22 24 22 80 0 36 -4 64 -10 64 -5 0 -10 -23 -10 -51 0 -59 -13 -89 -40
-89 -34 0 -50 28 -50 86 0 30 -4 54 -10 54 -6 0 -10 -28 -10 -64z"/>
<path d="M1627 1973 c-4 -3 -7 -39 -7 -80 0 -58 3 -73 15 -73 9 0 15 9 15 25
0 18 5 25 20 25 11 0 27 -11 36 -25 9 -14 23 -25 32 -25 13 0 12 3 -3 20 -16
18 -16 22 -3 51 9 17 13 40 11 50 -7 25 -98 51 -116 32z m88 -53 c0 -21 -5
-26 -32 -28 -31 -3 -33 -1 -33 28 0 29 2 31 33 28 27 -2 32 -7 32 -28z"/>
<path d="M1860 1965 c0 -9 9 -15 25 -15 24 0 25 -2 25 -65 0 -37 4 -65 10 -65
6 0 10 28 10 65 0 63 1 65 25 65 16 0 25 6 25 15 0 12 -13 15 -60 15 -47 0
-60 -3 -60 -15z"/>
<path d="M2240 1900 c0 -91 17 -109 22 -22 l3 57 22 -47 c12 -27 27 -48 32
-48 6 0 22 21 35 48 l25 47 1 -57 c0 -32 5 -58 10 -58 6 0 10 34 10 81 0 94
-11 99 -50 26 -14 -26 -28 -47 -31 -47 -3 0 -16 23 -29 50 -35 75 -50 66 -50
-30z"/>
<path d="M2554 1904 c-34 -74 -38 -112 -7 -66 21 30 89 32 98 2 3 -11 13 -20
20 -20 11 0 5 20 -20 76 -19 42 -35 78 -35 80 0 2 -5 4 -11 4 -5 0 -26 -34
-45 -76z m61 6 l16 -30 -31 0 c-16 0 -30 2 -30 5 0 7 23 55 26 55 2 0 10 -13
19 -30z"/>
<path d="M2790 1900 c0 -91 17 -109 22 -23 l3 57 43 -57 c23 -31 47 -57 52
-57 6 0 10 35 10 80 0 91 -17 109 -22 23 l-3 -57 -43 57 c-23 31 -47 57 -52
57 -6 0 -10 -35 -10 -80z"/>
<path d="M3074 1904 c-34 -74 -38 -112 -7 -66 21 30 89 32 98 2 3 -11 13 -20
20 -20 11 0 5 20 -20 76 -19 42 -35 78 -35 80 0 2 -5 4 -11 4 -5 0 -26 -34
-45 -76z m61 6 l16 -30 -31 0 c-16 0 -30 2 -30 5 0 7 23 55 26 55 2 0 10 -13
19 -30z"/>
<path d="M3318 1974 c-5 -4 -8 -40 -8 -81 0 -58 3 -73 15 -73 9 0 15 9 15 25
0 22 4 25 33 25 18 0 38 5 45 12 16 16 15 63 -1 76 -17 14 -90 26 -99 16z m87
-54 c0 -21 -5 -26 -32 -28 -31 -3 -33 -1 -33 28 0 29 2 31 33 28 27 -2 32 -7
32 -28z"/>
<path d="M3550 1916 c0 -56 3 -67 22 -80 12 -9 32 -16 43 -16 11 0 31 7 43 16
19 13 22 24 22 80 0 36 -4 64 -10 64 -5 0 -10 -23 -10 -51 0 -59 -13 -89 -40
-89 -34 0 -50 28 -50 86 0 30 -4 54 -10 54 -6 0 -10 -28 -10 -64z"/>
<path d="M3816 1973 c-3 -3 -6 -39 -6 -80 l0 -73 45 0 c25 0 45 5 45 10 0 6
-13 10 -30 10 l-30 0 0 64 c0 60 -8 84 -24 69z"/>
</g>
</svg>
